# xmcd
#
# Track frame offsets:
#	300
#	19158
#	34486
#	52548
#	69492
#	88608
#	103903
#	122002
#
# Disc length: 1851 seconds
#
# Revision: 1
# Processed by: cddbd v1.5.2PL0 Copyright (c) Steve Scherf et al.
# Submitted via: audiograbber 1.83.01
#
DISCID=65073708
DTITLE=Vocls - LeAnn Rimes
DYEAR=1900
DGENRE=Karaoke
TTITLE0=LeAnn Rimes - How Do I Live
TTITLE1=LeAnn Rimes - On the Side of Angels
TTITLE2=LeAnn Rimes - Unchained Melody
TTITLE3=LeAnn Rimes - You Light Up My Life
TTITLE4=LeAnn Rimes - How Do I Live (vocals)
TTITLE5=LeAnn Rimes - On the Side of Angels (vocals)
TTITLE6=LeAnn Rimes - Unchained Melody (vocals)
TTITLE7=LeAnn Rimes - You Light Up My Life (vocals)
EXTD=
EXTT0=
EXTT1=
EXTT2=
EXTT3=
EXTT4=
EXTT5=
EXTT6=
EXTT7=
PLAYORDER=
